<?xml version="1.0" standalone="no"?>
<!DOCTYPE svg PUBLIC "-//W3C//DTD SVG 20010904//EN"
 "http://www.w3.org/TR/2001/REC-SVG-20010904/DTD/svg10.dtd">
<svg version="1.0" xmlns="http://www.w3.org/2000/svg"
 width="260.000000pt" height="260.000000pt" viewBox="0 0 260.000000 260.000000"
 preserveAspectRatio="xMidYMid meet">
<metadata>
Created by potrace 1.14, written by Peter Selinger 2001-2017
</metadata>
<g transform="translate(0.000000,260.000000) scale(0.100000,-0.100000)"
fill="#000000" stroke="none">
<path d="M94 1726 c-17 -8 -44 -31 -60 -52 l-29 -37 0 -328 c0 -315 1 -329 21
-355 11 -15 33 -37 48 -48 27 -21 31 -21 1226 -21 1195 0 1199 0 1226 21 15
11 37 33 48 48 20 26 21 40 21 356 0 316 -1 330 -21 356 -11 15 -33 37 -48 48
-27 21 -33 21 -1214 23 -985 2 -1192 0 -1218 -11z"/>
</g>
</svg>
